name Walk3.mot
datacolumns 19
datarows 27
range 2.65400000 2.68000000
endheader

                time	   L_ground_force_vx	   L_ground_force_vy	   L_ground_force_vz	   L_ground_force_px	   L_ground_force_py	   L_ground_force_pz	   R_ground_force_vx	   R_ground_force_vy	   R_ground_force_vz	   R_ground_force_px	   R_ground_force_py	   R_ground_force_pz	   L_ground_torque_x	   L_ground_torque_y	   L_ground_torque_z	   R_ground_torque_x	   R_ground_torque_y	   R_ground_torque_z	
          2.65400000	          0.00000000	          0.00000000	          0.00000000	          0.00000000	          0.00000000	          0.00000000	         -0.15145112	        -22.14795922	         -0.12217238	         -0.14387941	          0.00000000	          0.21491475	          0.00000000	          0.00000000	          0.00000000	          0.00000000	          0.00141414	          0.00000000	
          2.65500000	          0.00000000	          0.00000000	          0.00000000	          0.00000000	          0.00000000	          0.00000000	         -0.15056813	        -22.08471056	         -0.11928538	         -0.14393557	          0.00000000	          0.21503893	          0.00000000	          0.00000000	          0.00000000	          0.00000000	          0.00151313	          0.00000000	
          2.65600000	          0.00000000	          0.00000000	          0.00000000	          0.00000000	          0.00000000	          0.00000000	         -0.15091537	        -22.07973061	         -0.11907553	         -0.14399674	          0.00000000	          0.21503142	          0.00000000	          0.00000000	          0.00000000	          0.00000000	          0.00166159	          0.00000000	
          2.65700000	          0.00000000	          0.00000000	          0.00000000	          0.00000000	          0.00000000	          0.00000000	         -0.15243469	        -22.12332540	         -0.12110486	         -0.14405999	          0.00000000	          0.21491009	          0.00000000	          0.00000000	          0.00000000	          0.00000000	          0.00188652	          0.00000000	
          2.65800000	          0.00000000	          0.00000000	          0.00000000	          0.00000000	          0.00000000	          0.00000000	         -0.15455491	        -22.19280311	         -0.12430202	         -0.14411779	          0.00000000	          0.21473089	          0.00000000	          0.00000000	          0.00000000	          0.00000000	          0.00213868	          0.00000000	
          2.65900000	          0.00000000	          0.00000000	          0.00000000	          0.00000000	          0.00000000	          0.00000000	         -0.15597429	        -22.24678652	         -0.12669887	         -0.14414792	          0.00000000	          0.21460197	          0.00000000	          0.00000000	          0.00000000	          0.00000000	          0.00225793	          0.00000000	
          2.66000000	          0.00000000	          0.00000000	          0.00000000	          0.00000000	          0.00000000	          0.00000000	         -0.15440137	        -22.21660839	         -0.12504009	         -0.14410517	          0.00000000	          0.21470472	          0.00000000	          0.00000000	          0.00000000	          0.00000000	          0.00194329	          0.00000000	
          2.66100000	          0.00000000	          0.00000000	          0.00000000	          0.00000000	          0.00000000	          0.00000000	         -0.14650670	        -22.00284592	         -0.11464763	         -0.14391735	          0.00000000	          0.21530967	          0.00000000	          0.00000000	          0.00000000	          0.00000000	          0.00075517	          0.00000000	
          2.66200000	          0.00000000	          0.00000000	          0.00000000	          0.00000000	          0.00000000	          0.00000000	         -0.12849385	        -21.48941040	         -0.09012570	         -0.14348860	          0.00000000	          0.21677141	          0.00000000	          0.00000000	          0.00000000	          0.00000000	         -0.00180294	          0.00000000	
          2.66300000	          0.00000000	          0.00000000	          0.00000000	          0.00000000	          0.00000000	          0.00000000	         -0.09782651	        -20.59148423	         -0.04766945	         -0.14272072	          0.00000000	          0.21946498	          0.00000000	          0.00000000	          0.00000000	          0.00000000	         -0.00605570	          0.00000000	
          2.66400000	          0.00000000	          0.00000000	          0.00000000	          0.00000000	          0.00000000	          0.00000000	         -0.05662900	        -19.35355192	          0.01027467	         -0.14158840	          0.00000000	          0.22353530	          0.00000000	          0.00000000	          0.00000000	          0.00000000	         -0.01168633	          0.00000000	
          2.66500000	          0.00000000	          0.00000000	          0.00000000	          0.00000000	          0.00000000	          0.00000000	         -0.01690754	        -18.10383940	          0.06773695	         -0.14036499	          0.00000000	          0.22811095	          0.00000000	          0.00000000	          0.00000000	          0.00000000	         -0.01690802	          0.00000000	
          2.66600000	          0.00000000	          0.00000000	          0.00000000	          0.00000000	          0.00000000	          0.00000000	          0.00109295	        -17.40353793	          0.09745763	         -0.13978661	          0.00000000	          0.23072122	          0.00000000	          0.00000000	          0.00000000	          0.00000000	         -0.01846022	          0.00000000	
          2.66700000	          0.00000000	          0.00000000	          0.00000000	          0.00000000	          0.00000000	          0.00000000	         -0.01278055	        -17.49724347	          0.08628936	         -0.14037558	          0.00000000	          0.22967673	          0.00000000	          0.00000000	          0.00000000	          0.00000000	         -0.01442421	          0.00000000	
          2.66800000	          0.00000000	          0.00000000	          0.00000000	          0.00000000	          0.00000000	          0.00000000	         -0.04516800	        -17.93457699	          0.05320348	         -0.14168138	          0.00000000	          0.22673785	          0.00000000	          0.00000000	          0.00000000	          0.00000000	         -0.00672881	          0.00000000	
          2.66900000	          0.00000000	          0.00000000	          0.00000000	          0.00000000	          0.00000000	          0.00000000	         -0.07362814	        -18.07369234	          0.02749818	         -0.14298282	          0.00000000	          0.22451797	          0.00000000	          0.00000000	          0.00000000	          0.00000000	          0.00086439	          0.00000000	
          2.67000000	          0.00000000	          0.00000000	          0.00000000	          0.00000000	          0.00000000	          0.00000000	         -0.08645620	        -17.78122377	          0.01891719	         -0.14394116	          0.00000000	          0.22374250	          0.00000000	          0.00000000	          0.00000000	          0.00000000	          0.00517868	          0.00000000	
          2.67100000	          0.00000000	          0.00000000	          0.00000000	          0.00000000	          0.00000000	          0.00000000	         -0.08413689	        -17.43606938	          0.01728740	         -0.14442630	          0.00000000	          0.22363816	          0.00000000	          0.00000000	          0.00000000	          0.00000000	          0.00399810	          0.00000000	
          2.67200000	          0.00000000	          0.00000000	          0.00000000	          0.00000000	          0.00000000	          0.00000000	         -0.06980923	        -17.27675575	          0.01595223	         -0.14441923	          0.00000000	          0.22360285	          0.00000000	          0.00000000	          0.00000000	          0.00000000	         -0.00285975	          0.00000000	
          2.67300000	          0.00000000	          0.00000000	          0.00000000	          0.00000000	          0.00000000	          0.00000000	         -0.04457873	        -16.99407414	          0.02666131	         -0.14408331	          0.00000000	          0.22430048	          0.00000000	          0.00000000	          0.00000000	          0.00000000	         -0.01221073	          0.00000000	
          2.67400000	          0.00000000	          0.00000000	          0.00000000	          0.00000000	          0.00000000	          0.00000000	         -0.01476685	        -16.23364728	          0.06475462	         -0.14365655	          0.00000000	          0.22670245	          0.00000000	          0.00000000	          0.00000000	          0.00000000	         -0.01772043	          0.00000000	
          2.67500000	          0.00000000	          0.00000000	          0.00000000	          0.00000000	          0.00000000	          0.00000000	          0.00391022	        -15.12510838	          0.13100875	         -0.14336144	          0.00000000	          0.23093460	          0.00000000	          0.00000000	          0.00000000	          0.00000000	         -0.01199908	          0.00000000	
          2.67600000	          0.00000000	          0.00000000	          0.00000000	          0.00000000	          0.00000000	          0.00000000	          0.00089028	        -13.96019342	          0.21617431	         -0.14335240	          0.00000000	          0.23670418	          0.00000000	          0.00000000	          0.00000000	          0.00000000	          0.00833488	          0.00000000	
          2.67700000	          0.00000000	          0.00000000	          0.00000000	          0.00000000	          0.00000000	          0.00000000	         -0.01771033	        -12.91706191	          0.30232795	         -0.14360553	          0.00000000	          0.24360566	          0.00000000	          0.00000000	          0.00000000	          0.00000000	          0.03781530	          0.00000000	
          2.67800000	          0.00000000	          0.00000000	          0.00000000	          0.00000000	          0.00000000	          0.00000000	         -0.04148726	        -12.47189418	          0.35049837	         -0.14394190	          0.00000000	          0.24843791	          0.00000000	          0.00000000	          0.00000000	          0.00000000	          0.06361589	          0.00000000	
          2.67900000	          0.00000000	          0.00000000	          0.00000000	          0.00000000	          0.00000000	          0.00000000	         -0.06774918	        -13.30942714	          0.32058455	         -0.14415141	          0.00000000	          0.24554337	          0.00000000	          0.00000000	          0.00000000	          0.00000000	          0.07334524	          0.00000000	
          2.68000000	          0.00000000	          0.00000000	          0.00000000	          0.00000000	          0.00000000	          0.00000000	         -0.09562862	        -15.43012077	          0.21730138	         -0.14417774	          0.00000000	          0.23616728	          0.00000000	          0.00000000	          0.00000000	          0.00000000	          0.06421559	          0.00000000	
